<svg width="134" height="38" viewBox="0 0 134 38" fill="none" xmlns="http://www.w3.org/2000/svg">
<path d="M4.74386 12.2758V22.3564C4.74386 23.3076 4.85637 24.0237 5.08141 24.5044C5.48034 25.3534 6.26284 25.7779 7.42893 25.7779C8.92235 25.7779 9.94523 25.1744 10.4976 23.9674C10.784 23.3128 10.9272 22.4484 10.9272 21.3744V12.2758H15.3614V29H11.1113V26.6371C11.0704 26.6883 10.9681 26.8417 10.8045 27.0974C10.6408 27.3532 10.4464 27.5782 10.2214 27.7725C9.53608 28.3863 8.8712 28.8057 8.22679 29.0307C7.5926 29.2557 6.84589 29.3682 5.98666 29.3682C3.51128 29.3682 1.84397 28.4783 0.98475 26.6985C0.503993 25.7165 0.263615 24.2692 0.263615 22.3564V12.2758H4.74386ZM28.5493 11.8769C30.278 11.8769 31.6895 12.3321 32.784 13.2424C33.8888 14.1426 34.4411 15.6411 34.4411 17.738V29H29.9609V18.8274C29.9609 17.9477 29.8432 17.2726 29.608 16.8021C29.1784 15.9429 28.3601 15.5132 27.153 15.5132C25.6699 15.5132 24.6521 16.1423 24.0997 17.4005C23.8133 18.0653 23.6701 18.9143 23.6701 19.9475V29H19.3126V12.3065H23.532V14.7461C24.0946 13.8869 24.6265 13.268 25.1277 12.8895C26.0279 12.2144 27.1684 11.8769 28.5493 11.8769ZM44.3455 6.15383C44.6217 6.15383 44.8723 6.16406 45.0973 6.18452C45.3224 6.19475 45.6292 6.21521 46.0179 6.24589V9.80554C45.7724 9.77485 45.3582 9.75439 44.7751 9.74416C44.2023 9.72371 43.8034 9.85157 43.5784 10.1277C43.3635 10.3937 43.2561 10.6903 43.2561 11.0177C43.2561 11.345 43.2561 11.8155 43.2561 12.4292H46.1253V15.5132H43.2561V29H38.8986V15.5132H36.4591V12.4292H38.8526V11.3552C38.8526 9.56516 39.1544 8.33258 39.7579 7.65748C40.3921 6.65505 41.9213 6.15383 44.3455 6.15383ZM55.8303 25.916C57.1089 25.916 58.0909 25.4608 58.7762 24.5504C59.4615 23.6401 59.8042 22.3461 59.8042 20.6686C59.8042 18.9911 59.4615 17.7022 58.7762 16.8021C58.0909 15.8917 57.1089 15.4365 55.8303 15.4365C54.5517 15.4365 53.5646 15.8917 52.869 16.8021C52.1837 17.7022 51.841 18.9911 51.841 20.6686C51.841 22.3461 52.1837 23.6401 52.869 24.5504C53.5646 25.4608 54.5517 25.916 55.8303 25.916ZM64.3918 20.6686C64.3918 23.1235 63.686 25.2255 62.2745 26.9747C60.8629 28.7136 58.7199 29.583 55.8456 29.583C52.9713 29.583 50.8284 28.7136 49.4168 26.9747C48.0052 25.2255 47.2994 23.1235 47.2994 20.6686C47.2994 18.2546 48.0052 16.1628 49.4168 14.3932C50.8284 12.6236 52.9713 11.7388 55.8456 11.7388C58.7199 11.7388 60.8629 12.6236 62.2745 14.3932C63.686 16.1628 64.3918 18.2546 64.3918 20.6686ZM71.6879 29H67.315V6.38398H71.6879V29ZM81.8224 11.8769C82.8351 11.8769 83.7352 12.1019 84.5229 12.552C85.3105 12.9918 85.9498 13.6056 86.4408 14.3932V6.41467H90.875V29H86.6249V26.6832C86.0009 27.6754 85.29 28.3965 84.4922 28.8466C83.6943 29.2966 82.7021 29.5217 81.5156 29.5217C79.5619 29.5217 77.915 28.734 76.575 27.1588C75.2453 25.5733 74.5804 23.5429 74.5804 21.0675C74.5804 18.2137 75.2351 15.9684 76.5443 14.3318C77.8639 12.6952 79.6232 11.8769 81.8224 11.8769ZM82.7737 25.8393C84.0114 25.8393 84.9525 25.379 85.5969 24.4584C86.2413 23.5378 86.5635 22.3461 86.5635 20.8834C86.5635 18.8376 86.047 17.3749 85.0138 16.4952C84.3797 15.9633 83.6432 15.6974 82.8044 15.6974C81.5258 15.6974 80.5847 16.1832 79.9812 17.155C79.388 18.1165 79.0913 19.3133 79.0913 20.7453C79.0913 22.2899 79.3931 23.5276 79.9966 24.4584C80.6103 25.379 81.536 25.8393 82.7737 25.8393Z" fill="black"/>
<path d="M96.2695 1.46143H114.539C118.152 1.46143 121.684 2.5329 124.689 4.54035C127.693 6.54779 130.035 9.40106 131.417 12.7393C132.8 16.0776 133.162 19.7509 132.457 23.2948C131.752 26.8387 130.012 30.0939 127.457 32.6489C124.902 35.2039 121.647 36.9439 118.103 37.6488C114.559 38.3538 110.886 37.992 107.547 36.6092C104.209 35.2265 101.356 32.8848 99.3485 29.8805C97.341 26.8761 96.2695 23.344 96.2695 19.7307V1.46143Z" fill="black"/>
<path d="M105.507 27.1177C104.773 26.9199 104.208 26.5455 103.812 25.9945C103.43 25.4435 103.219 24.6806 103.176 23.7058C103.148 22.7168 103.282 21.4876 103.579 20.0183C103.678 19.5238 103.819 18.9587 104.003 18.3229C104.186 17.6872 104.398 17.0373 104.638 16.3732C104.893 15.6951 105.154 15.0452 105.423 14.4235C105.705 13.7878 105.981 13.2297 106.249 12.7493C106.574 12.1701 106.857 11.7816 107.097 11.5838C107.337 11.386 107.57 11.3012 107.796 11.3295C108.135 11.386 108.389 11.5273 108.559 11.7533C108.743 11.9652 108.827 12.1983 108.813 12.4527C108.813 12.6928 108.693 12.8906 108.453 13.046C108.298 13.2297 108.093 13.5688 107.838 14.0633C107.598 14.5436 107.351 15.0099 107.097 15.462C106.814 16.2814 106.567 17.009 106.355 17.6448C106.143 18.2664 105.967 18.8527 105.825 19.4037C105.684 19.9547 105.557 20.534 105.444 21.1415C105.317 21.7349 105.218 22.1941 105.147 22.519C105.076 22.8298 105.027 23.07 104.999 23.2395C104.985 23.3949 104.97 23.5362 104.956 23.6634C104.956 23.7764 104.956 23.9318 104.956 24.1296C105.069 24.3133 105.161 24.4758 105.232 24.617C105.302 24.7583 105.394 24.8431 105.507 24.8713C105.748 24.9844 105.988 25.0409 106.228 25.0409C106.482 25.0409 106.758 24.9561 107.054 24.7866C107.125 24.6453 107.217 24.5464 107.33 24.4899C107.443 24.4334 107.499 24.4051 107.499 24.4051C107.528 24.4758 107.556 24.4969 107.584 24.4687C107.627 24.4263 107.655 24.3769 107.669 24.3203C107.655 24.2638 107.669 24.2144 107.711 24.172C107.754 24.1155 107.803 24.059 107.86 24.0025C107.973 23.9601 108.114 23.84 108.284 23.6422C108.467 23.4444 108.644 23.2254 108.813 22.9852C108.983 22.7309 109.124 22.4978 109.237 22.2859C109.364 22.074 109.428 21.9397 109.428 21.8832C109.428 21.8126 109.456 21.749 109.513 21.6925C109.569 21.636 109.633 21.5653 109.703 21.4806C109.774 21.4099 109.915 21.1839 110.127 20.8024C110.353 20.4068 110.593 19.9477 110.848 19.4249C111.116 18.9022 111.356 18.4218 111.568 17.9838C111.611 17.8284 111.688 17.5812 111.801 17.2421C111.914 16.8889 112.035 16.4863 112.162 16.0342C112.303 15.5821 112.437 15.1299 112.564 14.6778C112.692 14.2116 112.805 13.8019 112.903 13.4487C113.016 13.0814 113.087 12.8129 113.115 12.6434C113.144 12.4597 113.186 12.3114 113.243 12.1983C113.299 12.0712 113.334 11.9794 113.348 11.9228C113.504 11.7957 113.68 11.7604 113.878 11.8169C114.076 11.8734 114.26 11.9582 114.429 12.0712C114.613 12.1701 114.747 12.2407 114.832 12.2831C114.917 12.3961 114.952 12.5374 114.938 12.707C114.924 12.8765 114.874 13.1379 114.79 13.4911C114.719 13.8302 114.613 14.3246 114.472 14.9745C114.175 16.1331 113.815 17.1997 113.391 18.1746C112.981 19.1494 112.536 20.1808 112.056 21.2687C112.056 21.2687 112.056 21.2757 112.056 21.2898C112.056 21.2898 112.056 21.3252 112.056 21.3958C111.886 21.4947 111.752 21.6431 111.653 21.8408C111.582 21.968 111.519 22.081 111.462 22.1799C111.42 22.2647 111.363 22.3283 111.293 22.3707C111.25 22.4978 111.208 22.6108 111.166 22.7097C111.123 22.8086 111.102 22.8581 111.102 22.8581C111.088 22.9287 111.039 22.9923 110.954 23.0488C110.869 23.1053 110.784 23.1618 110.699 23.2183C110.629 23.2466 110.586 23.3031 110.572 23.3879C110.558 23.4727 110.53 23.5433 110.488 23.5998C110.177 24.066 109.795 24.5393 109.343 25.0197C108.891 25.4859 108.425 25.8956 107.944 26.2488C107.478 26.6021 107.054 26.8493 106.673 26.9906C106.419 27.0895 106.207 27.146 106.037 27.1601C105.882 27.1742 105.705 27.1601 105.507 27.1177ZM123.683 12.0712C123.966 12.0853 124.163 12.2337 124.276 12.5162C124.404 12.7988 124.432 13.1591 124.361 13.597C124.291 14.0209 124.086 14.473 123.747 14.9533C123.422 15.2783 123.238 15.5538 123.196 15.7798C123.097 15.907 122.941 16.0907 122.729 16.3308C122.532 16.5569 122.313 16.8041 122.072 17.0726C121.846 17.3269 121.642 17.5529 121.458 17.7507C121.288 17.9485 121.175 18.0686 121.119 18.111C120.921 18.2805 120.695 18.4783 120.441 18.7044C120.2 18.9304 119.981 19.1424 119.784 19.3402C119.6 19.5238 119.48 19.651 119.423 19.7216C119.324 19.8205 119.233 19.9265 119.148 20.0395C119.063 20.1384 118.985 20.202 118.915 20.2302C118.901 20.2867 118.858 20.3574 118.788 20.4422C118.717 20.5128 118.668 20.5834 118.639 20.6541C118.611 20.6682 118.519 20.7459 118.364 20.8872C118.208 21.0285 118.032 21.1909 117.834 21.3746C117.65 21.5442 117.481 21.6996 117.325 21.8408C117.184 21.9821 117.106 22.0669 117.092 22.0952C116.937 22.2364 116.697 22.4837 116.372 22.8369C116.047 23.176 115.686 23.5574 115.291 23.9813C114.895 24.4051 114.514 24.8219 114.147 25.2316C113.779 25.6272 113.468 25.9663 113.214 26.2488C112.974 26.5455 112.84 26.7292 112.811 26.7998C112.755 26.9129 112.663 26.9835 112.536 27.0118C112.423 27.0542 112.31 27.0612 112.197 27.033C112.14 27.0612 112.013 27.0683 111.815 27.0542C111.618 27.04 111.505 27.0259 111.476 27.0118C111.476 27.0118 111.462 26.9764 111.434 26.9058C111.406 26.8352 111.377 26.7221 111.349 26.5667C111.264 26.4254 111.257 26.1994 111.328 25.8886C111.413 25.5919 111.483 25.3658 111.54 25.2104C111.639 25.0268 111.738 24.8713 111.837 24.7442C111.935 24.617 112.105 24.4475 112.345 24.2356C112.585 24.0095 112.953 23.6634 113.447 23.1972C113.673 22.9711 113.899 22.7592 114.125 22.5614C114.365 22.3495 114.493 22.2223 114.507 22.1799C114.521 22.1234 114.577 22.0457 114.676 21.9468C114.775 21.8479 114.874 21.7278 114.973 21.5865C115.072 21.5159 115.234 21.3746 115.46 21.1627C115.701 20.9366 115.962 20.6894 116.245 20.421C116.527 20.1384 116.803 19.8629 117.071 19.5945C117.354 19.326 117.587 19.107 117.77 18.9375C117.855 18.8245 117.954 18.7114 118.067 18.5984C118.194 18.4713 118.328 18.3229 118.47 18.1534C118.484 18.1251 118.576 18.0262 118.745 17.8567C118.929 17.673 119.141 17.4611 119.381 17.2209C119.621 16.9666 119.847 16.7264 120.059 16.5004C120.285 16.2602 120.455 16.0765 120.568 15.9494C121.133 15.2854 121.642 14.6425 122.094 14.0209C122.56 13.3992 122.885 12.8906 123.068 12.495C123.21 12.1983 123.316 12.0571 123.386 12.0712C123.471 12.0853 123.57 12.0853 123.683 12.0712ZM120.695 26.5032C120.426 26.4749 120.116 26.3266 119.762 26.0581C119.423 25.7897 119.091 25.3658 118.766 24.7866C118.244 24.066 117.785 23.1972 117.389 22.1799C116.993 21.1486 116.718 20.0395 116.562 18.8527C116.492 18.3582 116.414 17.9344 116.329 17.5812C116.245 17.2139 116.188 17.0161 116.16 16.9878C116.146 16.9313 116.153 16.896 116.181 16.8818C116.223 16.8536 116.245 16.8395 116.245 16.8395C116.287 16.7971 116.294 16.7547 116.266 16.7123C116.237 16.6558 116.209 16.5922 116.181 16.5216C116.181 16.5216 116.146 16.3591 116.075 16.0342C116.004 15.7092 115.948 15.3066 115.905 14.8262C115.849 14.3176 115.8 13.8796 115.757 13.5123C115.729 13.1308 115.701 12.8836 115.672 12.7705C115.63 12.7423 115.609 12.6999 115.609 12.6434C115.609 12.5869 115.609 12.5586 115.609 12.5586C115.637 12.4738 115.715 12.375 115.842 12.2619C115.983 12.1348 116.075 12.05 116.117 12.0076C116.329 11.8522 116.562 11.8098 116.817 11.8805C117.071 11.937 117.29 12.0853 117.474 12.3255C117.657 12.5516 117.749 12.8412 117.749 13.1944C117.749 13.5617 117.792 13.7878 117.876 13.8725C117.862 13.9008 117.855 14.0068 117.855 14.1904C117.869 14.3741 117.883 14.586 117.898 14.8262C117.926 15.0522 117.954 15.2642 117.982 15.462C118.011 15.6598 118.032 15.794 118.046 15.8646C117.989 16.0342 117.989 16.1542 118.046 16.2249C118.06 16.3379 118.081 16.4933 118.109 16.6911C118.138 16.8748 118.145 17.0019 118.131 17.0726C118.117 17.1432 118.131 17.2704 118.173 17.454C118.23 17.6236 118.279 17.8002 118.321 17.9838L118.872 19.8912C118.985 20.3433 119.091 20.7459 119.19 21.0991C119.289 21.4382 119.409 21.7773 119.551 22.1163C119.692 22.4413 119.861 22.8086 120.059 23.2183C120.215 23.5574 120.398 23.8753 120.61 24.172C120.822 24.4546 121.013 24.6453 121.182 24.7442C121.211 24.7724 121.281 24.7936 121.394 24.8078C121.521 24.8078 121.599 24.7866 121.627 24.7442C121.783 24.7018 121.889 24.7513 121.945 24.8925C122.002 25.0338 122.03 25.2034 122.03 25.4012C122.044 25.5848 122.051 25.7473 122.051 25.8886C122.079 25.9875 122.023 26.0864 121.882 26.1853C121.74 26.2983 121.557 26.3831 121.331 26.4396C121.119 26.5102 120.907 26.5314 120.695 26.5032Z" fill="white"/>
</svg>
