<svg width="180" height="52" viewBox="0 0 180 52" fill="none" xmlns="http://www.w3.org/2000/svg">
<path d="M17.888 35.216C16.5693 37.9967 14.448 39.387 11.524 39.387C7.826 39.387 5.38933 37.9393 4.214 35.044C3.784 34.0407 3.569 32.8223 3.569 31.389V18.059H8.643V30.873C8.643 32.249 8.97267 33.281 9.632 33.969C10.2913 34.6283 11.094 34.958 12.04 34.958C13.0147 34.958 13.8317 34.829 14.491 34.571C15.1503 34.2843 15.7237 33.8687 16.211 33.324C17.2717 32.0913 17.8307 30.443 17.888 28.379V18.059H22.962V39H17.888V35.216ZM34.226 21.714C35.602 18.9333 37.8093 17.543 40.848 17.543C43.428 17.543 45.363 18.3887 46.653 20.08C47.9717 21.7713 48.631 24.0073 48.631 26.788V39H43.557V26.788C43.557 25.24 43.1843 24.079 42.439 23.305C41.6937 22.5023 40.6473 22.101 39.3 22.101C37.9527 22.101 36.7917 22.703 35.817 23.907C34.871 25.111 34.3693 26.917 34.312 29.325V39H29.238V18.102H33.667L34.226 21.714ZM52.03 18.102H55.126V15.651C55.126 13.501 55.7567 11.8527 57.018 10.706C58.1647 9.674 59.6553 9.158 61.49 9.158C62.6653 9.158 64.113 9.33 65.833 9.674L64.844 13.587C64.0413 13.3003 63.3103 13.157 62.651 13.157C62.0203 13.157 61.4613 13.3433 60.974 13.716C60.4867 14.06 60.243 14.7193 60.243 15.694V18.102H64.07V21.499H60.243V39H55.126V21.499H52.03V18.102ZM76.5491 17.543C77.9537 17.543 79.2724 17.7723 80.5051 18.231C81.7377 18.661 82.7984 19.3347 83.6871 20.252C85.6651 22.2587 86.6541 25.0393 86.6541 28.594C86.6541 32.0913 85.6651 34.8433 83.6871 36.85C81.9097 38.6847 79.5304 39.602 76.5491 39.602C73.5677 39.602 71.1597 38.6847 69.3251 36.85C67.3471 34.872 66.3581 32.12 66.3581 28.594C66.3581 25.0107 67.3471 22.23 69.3251 20.252C71.1311 18.446 73.5391 17.543 76.5491 17.543ZM81.5801 28.551C81.5801 26.3437 81.1501 24.6953 80.2901 23.606C79.4301 22.488 78.2261 21.929 76.6781 21.929C75.1587 21.929 73.9117 22.488 72.9371 23.606C71.9624 24.6953 71.4751 26.3437 71.4751 28.551C71.4751 30.7583 71.9051 32.421 72.7651 33.539C73.6537 34.6283 74.8577 35.173 76.3771 35.173C77.8964 35.173 79.1434 34.6283 80.1181 33.539C81.0927 32.421 81.5801 30.7583 81.5801 28.551ZM90.9715 9.502H96.0455V39H90.9715V9.502ZM115.942 35.775C114.652 38.3263 112.674 39.602 110.008 39.602C107.342 39.602 105.106 38.5843 103.3 36.549C101.437 34.4277 100.505 31.733 100.505 28.465C100.505 25.197 101.394 22.5453 103.171 20.51C104.92 18.532 107.098 17.543 109.707 17.543C112.316 17.543 114.279 18.5893 115.598 20.682V9.502H120.715V39H116.544L115.942 35.775ZM110.653 22.101C109.22 22.101 108.016 22.6887 107.041 23.864C106.095 25.0107 105.622 26.5587 105.622 28.508C105.622 30.4573 106.109 32.034 107.084 33.238C108.059 34.4133 109.291 35.001 110.782 35.001C112.015 35.001 113.118 34.5137 114.093 33.539C115.096 32.5357 115.598 31.2743 115.598 29.755V27.046C115.541 25.5553 115.039 24.337 114.093 23.391C113.233 22.531 112.086 22.101 110.653 22.101Z" fill="white"/>
<path d="M129 2H154C158.945 2 163.778 3.46622 167.889 6.21326C172 8.96029 175.205 12.8648 177.097 17.4329C178.989 22.0011 179.484 27.0277 178.52 31.8773C177.555 36.7268 175.174 41.1814 171.678 44.6777C168.181 48.174 163.727 50.555 158.877 51.5196C154.028 52.4843 149.001 51.9892 144.433 50.097C139.865 48.2048 135.96 45.0005 133.213 40.8893C130.466 36.778 129 31.9445 129 27V2Z" fill="white"/>
<path d="M141.641 37.74C140.636 37.4693 139.862 36.957 139.321 36.203C138.799 35.449 138.509 34.405 138.451 33.071C138.412 31.7177 138.596 30.0357 139.002 28.025C139.137 27.3483 139.331 26.575 139.582 25.705C139.833 24.835 140.123 23.9457 140.452 23.037C140.8 22.109 141.158 21.2197 141.525 20.369C141.912 19.499 142.289 18.7353 142.656 18.078C143.101 17.2853 143.487 16.7537 143.816 16.483C144.145 16.2123 144.464 16.0963 144.773 16.135C145.237 16.2123 145.585 16.4057 145.817 16.715C146.068 17.005 146.184 17.324 146.165 17.672C146.165 18.0007 146.001 18.2713 145.672 18.484C145.459 18.7353 145.179 19.1993 144.831 19.876C144.502 20.5333 144.164 21.1713 143.816 21.79C143.429 22.9113 143.091 23.907 142.801 24.777C142.511 25.6277 142.269 26.43 142.076 27.184C141.883 27.938 141.709 28.7307 141.554 29.562C141.38 30.374 141.245 31.0023 141.148 31.447C141.051 31.8723 140.984 32.201 140.945 32.433C140.926 32.6457 140.906 32.839 140.887 33.013C140.887 33.1677 140.887 33.3803 140.887 33.651C141.042 33.9023 141.167 34.1247 141.264 34.318C141.361 34.5113 141.486 34.6273 141.641 34.666C141.97 34.8207 142.298 34.898 142.627 34.898C142.975 34.898 143.352 34.782 143.758 34.55C143.855 34.3567 143.98 34.2213 144.135 34.144C144.29 34.0667 144.367 34.028 144.367 34.028C144.406 34.1247 144.444 34.1537 144.483 34.115C144.541 34.057 144.58 33.9893 144.599 33.912C144.58 33.8347 144.599 33.767 144.657 33.709C144.715 33.6317 144.783 33.5543 144.86 33.477C145.015 33.419 145.208 33.2547 145.44 32.984C145.691 32.7133 145.933 32.4137 146.165 32.085C146.397 31.737 146.59 31.418 146.745 31.128C146.919 30.838 147.006 30.6543 147.006 30.577C147.006 30.4803 147.045 30.3933 147.122 30.316C147.199 30.2387 147.286 30.142 147.383 30.026C147.48 29.9293 147.673 29.62 147.963 29.098C148.272 28.5567 148.601 27.9283 148.949 27.213C149.316 26.4977 149.645 25.8403 149.935 25.241C149.993 25.0283 150.099 24.69 150.254 24.226C150.409 23.7427 150.573 23.1917 150.747 22.573C150.94 21.9543 151.124 21.3357 151.298 20.717C151.472 20.079 151.627 19.5183 151.762 19.035C151.917 18.5323 152.013 18.165 152.052 17.933C152.091 17.6817 152.149 17.4787 152.226 17.324C152.303 17.15 152.352 17.0243 152.371 16.947C152.584 16.773 152.825 16.7247 153.096 16.802C153.367 16.8793 153.618 16.9953 153.85 17.15C154.101 17.2853 154.285 17.382 154.401 17.44C154.517 17.5947 154.565 17.788 154.546 18.02C154.527 18.252 154.459 18.6097 154.343 19.093C154.246 19.557 154.101 20.2337 153.908 21.123C153.502 22.7083 153.009 24.168 152.429 25.502C151.868 26.836 151.259 28.2473 150.602 29.736C150.602 29.736 150.602 29.7457 150.602 29.765C150.602 29.765 150.602 29.8133 150.602 29.91C150.37 30.0453 150.186 30.2483 150.051 30.519C149.954 30.693 149.867 30.8477 149.79 30.983C149.732 31.099 149.655 31.186 149.558 31.244C149.5 31.418 149.442 31.5727 149.384 31.708C149.326 31.8433 149.297 31.911 149.297 31.911C149.278 32.0077 149.21 32.0947 149.094 32.172C148.978 32.2493 148.862 32.3267 148.746 32.404C148.649 32.4427 148.591 32.52 148.572 32.636C148.553 32.752 148.514 32.8487 148.456 32.926C148.031 33.564 147.509 34.2117 146.89 34.869C146.271 35.507 145.633 36.0677 144.976 36.551C144.338 37.0343 143.758 37.3727 143.236 37.566C142.888 37.7013 142.598 37.7787 142.366 37.798C142.153 37.8173 141.912 37.798 141.641 37.74ZM166.513 17.15C166.9 17.1693 167.17 17.3723 167.325 17.759C167.499 18.1457 167.538 18.6387 167.441 19.238C167.344 19.818 167.064 20.4367 166.6 21.094C166.155 21.5387 165.904 21.9157 165.846 22.225C165.711 22.399 165.498 22.6503 165.208 22.979C164.937 23.2883 164.638 23.6267 164.309 23.994C164 24.342 163.719 24.6513 163.468 24.922C163.236 25.1927 163.081 25.357 163.004 25.415C162.733 25.647 162.424 25.9177 162.076 26.227C161.747 26.5363 161.448 26.8263 161.177 27.097C160.926 27.3483 160.761 27.5223 160.684 27.619C160.549 27.7543 160.423 27.8993 160.307 28.054C160.191 28.1893 160.085 28.2763 159.988 28.315C159.969 28.3923 159.911 28.489 159.814 28.605C159.717 28.7017 159.65 28.7983 159.611 28.895C159.572 28.9143 159.447 29.0207 159.234 29.214C159.021 29.4073 158.78 29.6297 158.509 29.881C158.258 30.113 158.026 30.3257 157.813 30.519C157.62 30.7123 157.513 30.8283 157.494 30.867C157.281 31.0603 156.953 31.3987 156.508 31.882C156.063 32.346 155.57 32.868 155.029 33.448C154.488 34.028 153.966 34.5983 153.463 35.159C152.96 35.7003 152.535 36.1643 152.187 36.551C151.858 36.957 151.675 37.2083 151.636 37.305C151.559 37.4597 151.433 37.5563 151.259 37.595C151.104 37.653 150.95 37.6627 150.795 37.624C150.718 37.6627 150.544 37.6723 150.273 37.653C150.002 37.6337 149.848 37.6143 149.809 37.595C149.809 37.595 149.79 37.5467 149.751 37.45C149.712 37.3533 149.674 37.1987 149.635 36.986C149.519 36.7927 149.509 36.4833 149.606 36.058C149.722 35.652 149.819 35.3427 149.896 35.13C150.031 34.8787 150.167 34.666 150.302 34.492C150.437 34.318 150.669 34.086 150.998 33.796C151.327 33.4867 151.829 33.013 152.506 32.375C152.815 32.0657 153.125 31.7757 153.434 31.505C153.763 31.215 153.937 31.041 153.956 30.983C153.975 30.9057 154.053 30.7993 154.188 30.664C154.323 30.5287 154.459 30.3643 154.594 30.171C154.729 30.0743 154.952 29.881 155.261 29.591C155.59 29.2817 155.947 28.9433 156.334 28.576C156.721 28.1893 157.098 27.8123 157.465 27.445C157.852 27.0777 158.171 26.778 158.422 26.546C158.538 26.3913 158.673 26.2367 158.828 26.082C159.002 25.908 159.186 25.705 159.379 25.473C159.398 25.4343 159.524 25.299 159.756 25.067C160.007 24.8157 160.297 24.5257 160.626 24.197C160.955 23.849 161.264 23.5203 161.554 23.211C161.863 22.8823 162.095 22.631 162.25 22.457C163.023 21.5483 163.719 20.6687 164.338 19.818C164.976 18.9673 165.421 18.2713 165.672 17.73C165.865 17.324 166.01 17.1307 166.107 17.15C166.223 17.1693 166.358 17.1693 166.513 17.15ZM162.424 36.899C162.057 36.8603 161.631 36.6573 161.148 36.29C160.684 35.9227 160.23 35.3427 159.785 34.55C159.07 33.564 158.441 32.375 157.9 30.983C157.359 29.5717 156.982 28.054 156.769 26.43C156.672 25.7533 156.566 25.1733 156.45 24.69C156.334 24.1873 156.257 23.9167 156.218 23.878C156.199 23.8007 156.208 23.7523 156.247 23.733C156.305 23.6943 156.334 23.675 156.334 23.675C156.392 23.617 156.402 23.559 156.363 23.501C156.324 23.4237 156.286 23.3367 156.247 23.24C156.247 23.24 156.199 23.0177 156.102 22.573C156.005 22.1283 155.928 21.5773 155.87 20.92C155.793 20.224 155.725 19.6247 155.667 19.122C155.628 18.6 155.59 18.2617 155.551 18.107C155.493 18.0683 155.464 18.0103 155.464 17.933C155.464 17.8557 155.464 17.817 155.464 17.817C155.503 17.701 155.609 17.5657 155.783 17.411C155.976 17.237 156.102 17.121 156.16 17.063C156.45 16.8503 156.769 16.7923 157.117 16.889C157.465 16.9663 157.765 17.1693 158.016 17.498C158.267 17.8073 158.393 18.2037 158.393 18.687C158.393 19.1897 158.451 19.499 158.567 19.615C158.548 19.6537 158.538 19.7987 158.538 20.05C158.557 20.3013 158.577 20.5913 158.596 20.92C158.635 21.2293 158.673 21.5193 158.712 21.79C158.751 22.0607 158.78 22.2443 158.799 22.341C158.722 22.573 158.722 22.7373 158.799 22.834C158.818 22.9887 158.847 23.2013 158.886 23.472C158.925 23.7233 158.934 23.8973 158.915 23.994C158.896 24.0907 158.915 24.2647 158.973 24.516C159.05 24.748 159.118 24.9897 159.176 25.241L159.93 27.851C160.085 28.4697 160.23 29.0207 160.365 29.504C160.5 29.968 160.665 30.432 160.858 30.896C161.051 31.3407 161.283 31.8433 161.554 32.404C161.767 32.868 162.018 33.303 162.308 33.709C162.598 34.0957 162.859 34.3567 163.091 34.492C163.13 34.5307 163.226 34.5597 163.381 34.579C163.555 34.579 163.661 34.55 163.7 34.492C163.913 34.434 164.058 34.5017 164.135 34.695C164.212 34.8883 164.251 35.1203 164.251 35.391C164.27 35.6423 164.28 35.8647 164.28 36.058C164.319 36.1933 164.241 36.3287 164.048 36.464C163.855 36.6187 163.603 36.7347 163.294 36.812C163.004 36.9087 162.714 36.9377 162.424 36.899Z" fill="black"/>
</svg>
