<svg width="94" height="59" viewBox="0 0 94 59" fill="none" xmlns="http://www.w3.org/2000/svg">
<path d="M12.48 24.36C11.56 26.3 10.08 27.27 8.04 27.27C5.46 27.27 3.76 26.26 2.94 24.24C2.64 23.54 2.49 22.69 2.49 21.69V12.39H6.03V21.33C6.03 22.29 6.26 23.01 6.72 23.49C7.18 23.95 7.74 24.18 8.4 24.18C9.08 24.18 9.65 24.09 10.11 23.91C10.57 23.71 10.97 23.42 11.31 23.04C12.05 22.18 12.44 21.03 12.48 19.59V12.39H16.02V27H12.48V24.36ZM25.0786 14.94C26.0386 13 27.5786 12.03 29.6986 12.03C31.4986 12.03 32.8486 12.62 33.7486 13.8C34.6686 14.98 35.1286 16.54 35.1286 18.48V27H31.5886V18.48C31.5886 17.4 31.3286 16.59 30.8086 16.05C30.2886 15.49 29.5586 15.21 28.6186 15.21C27.6786 15.21 26.8686 15.63 26.1886 16.47C25.5286 17.31 25.1786 18.57 25.1386 20.25V27H21.5986V12.42H24.6886L25.0786 14.94ZM38.7 12.42H40.86V10.71C40.86 9.21 41.3 8.06 42.18 7.26C42.98 6.54 44.02 6.18 45.3 6.18C46.12 6.18 47.13 6.3 48.33 6.54L47.64 9.27C47.08 9.07 46.57 8.97 46.11 8.97C45.67 8.97 45.28 9.1 44.94 9.36C44.6 9.6 44.43 10.06 44.43 10.74V12.42H47.1V14.79H44.43V27H40.86V14.79H38.7V12.42ZM57.0063 12.03C57.9863 12.03 58.9063 12.19 59.7663 12.51C60.6263 12.81 61.3663 13.28 61.9863 13.92C63.3663 15.32 64.0563 17.26 64.0563 19.74C64.0563 22.18 63.3663 24.1 61.9863 25.5C60.7463 26.78 59.0863 27.42 57.0063 27.42C54.9263 27.42 53.2463 26.78 51.9663 25.5C50.5863 24.12 49.8963 22.2 49.8963 19.74C49.8963 17.24 50.5863 15.3 51.9663 13.92C53.2263 12.66 54.9063 12.03 57.0063 12.03ZM60.5163 19.71C60.5163 18.17 60.2163 17.02 59.6163 16.26C59.0163 15.48 58.1763 15.09 57.0963 15.09C56.0363 15.09 55.1663 15.48 54.4863 16.26C53.8063 17.02 53.4663 18.17 53.4663 19.71C53.4663 21.25 53.7663 22.41 54.3663 23.19C54.9863 23.95 55.8263 24.33 56.8863 24.33C57.9463 24.33 58.8163 23.95 59.4963 23.19C60.1763 22.41 60.5163 21.25 60.5163 19.71ZM68.2685 6.42H71.8085V27H68.2685V6.42ZM86.8898 24.75C85.9898 26.53 84.6098 27.42 82.7498 27.42C80.8898 27.42 79.3298 26.71 78.0698 25.29C76.7698 23.81 76.1198 21.93 76.1198 19.65C76.1198 17.37 76.7398 15.52 77.9798 14.1C79.1998 12.72 80.7198 12.03 82.5398 12.03C84.3598 12.03 85.7298 12.76 86.6498 14.22V6.42H90.2198V27H87.3098L86.8898 24.75ZM83.1998 15.21C82.1998 15.21 81.3598 15.62 80.6798 16.44C80.0198 17.24 79.6898 18.32 79.6898 19.68C79.6898 21.04 80.0298 22.14 80.7098 22.98C81.3898 23.8 82.2498 24.21 83.2898 24.21C84.1498 24.21 84.9198 23.87 85.5998 23.19C86.2998 22.49 86.6498 21.61 86.6498 20.55V18.66C86.6098 17.62 86.2598 16.77 85.5998 16.11C84.9998 15.51 84.1998 15.21 83.1998 15.21Z" fill="black"/>
<path opacity="0.4" d="M4.98 32.13V44.19C4.98 45.95 5.42 47.22 6.3 48C7.18 48.78 8.34 49.17 9.78 49.17C11.22 49.17 12.38 48.78 13.26 48C14.14 47.22 14.58 45.95 14.58 44.19V32.13H16.95V44.19C16.95 46.55 16.3 48.33 15 49.53C13.7 50.73 11.95 51.33 9.75 51.33C7.57 51.33 5.83 50.73 4.53 49.53C3.25 48.33 2.61 46.55 2.61 44.19V32.13H4.98ZM37.4189 51H34.4789L29.0189 43.47L23.9489 51H21.0689L27.7289 41.64L21.0389 32.13H23.8889L29.2889 39.84L34.2689 32.13H37.1189L30.6089 41.61L37.4189 51Z" fill="black"/>
</svg>
